<svg width="34" height="34" viewBox="0 0 34 34" fill="none" xmlns="http://www.w3.org/2000/svg">
<path d="M6.51398 6.95312C6.06934 6.95312 5.70888 7.32002 5.70888 7.7726V10.3055C5.70888 10.7581 6.06934 11.125 6.51398 11.125H10.759C11.2037 11.125 11.5641 10.7581 11.5641 10.3055V7.7726C11.5641 7.32002 11.2037 6.95312 10.759 6.95312H6.51398Z" fill="#00548A"/>
<path d="M6.51398 12.5156C6.06934 12.5156 5.70888 12.8825 5.70888 13.3351V15.868C5.70888 16.3206 6.06934 16.6875 6.51398 16.6875H10.759C11.2037 16.6875 11.5641 16.3206 11.5641 15.868V13.3351C11.5641 12.8825 11.2037 12.5156 10.759 12.5156H6.51398Z" fill="#00548A"/>
<path d="M6.51398 18.0781C6.06934 18.0781 5.70888 18.445 5.70888 18.8976V21.4305C5.70888 21.8831 6.06934 22.25 6.51398 22.25H10.759C11.2037 22.25 11.5641 21.8831 11.5641 21.4305V18.8976C11.5641 18.445 11.2037 18.0781 10.759 18.0781H6.51398Z" fill="#00548A"/>
<path d="M14.0343 6.95312C13.4785 6.95312 13.028 7.32002 13.028 7.7726V10.3055C13.028 10.7581 13.4785 11.125 14.0343 11.125H19.3407C19.8965 11.125 20.347 10.7581 20.347 10.3055V7.7726C20.347 7.32002 19.8965 6.95312 19.3407 6.95312H14.0343Z" fill="#00548A"/>
<path d="M14.0343 12.5156C13.4785 12.5156 13.028 12.8825 13.028 13.3351V15.868C13.028 16.3206 13.4785 16.6875 14.0343 16.6875H19.3407C19.8965 16.6875 20.347 16.3206 20.347 15.868V13.3351C20.347 12.8825 19.8965 12.5156 19.3407 12.5156H14.0343Z" fill="#00548A"/>
<path d="M14.0343 18.0781C13.4785 18.0781 13.028 18.445 13.028 18.8976V21.4305C13.028 21.8831 13.4785 22.25 14.0343 22.25H19.3407C19.8965 22.25 20.347 21.8831 20.347 21.4305V18.8976C20.347 18.445 19.8965 18.0781 19.3407 18.0781H14.0343Z" fill="#00548A"/>
<path d="M26.7695 23.6406V25.0312H6.60547V23.6406H26.7695ZM29.2031 20.9341V8.26906C29.203 6.68234 28.0247 5.5625 26.7695 5.5625H6.60547C5.3503 5.5625 4.17197 6.68234 4.17188 8.26906V20.9341C4.17197 22.5208 5.35029 23.6406 6.60547 23.6406V25.0312C4.62529 25.0312 2.99728 23.4187 2.80162 21.3523L2.78125 20.9341V8.26906C2.78135 6.00623 4.49348 4.17188 6.60547 4.17188H26.7695C28.8816 4.17188 30.5937 6.00623 30.5938 8.26906V20.9341L30.5734 21.3523C30.3777 23.4187 28.7497 25.0312 26.7695 25.0312V23.6406C28.0247 23.6406 29.203 22.5208 29.2031 20.9341Z" fill="#00548A"/>
<path d="M22.616 6.95312C22.1713 6.95312 21.8109 7.32002 21.8109 7.7726V10.3055C21.8109 10.7581 22.1713 11.125 22.616 11.125H26.861C27.3057 11.125 27.6661 10.7581 27.6661 10.3055V7.7726C27.6661 7.32002 27.3057 6.95312 26.861 6.95312H22.616Z" fill="#00548A"/>
<path d="M22.616 12.5156C22.1713 12.5156 21.8109 12.8825 21.8109 13.3351V15.868C21.8109 16.3206 22.1713 16.6875 22.616 16.6875H26.861C27.3057 16.6875 27.6661 16.3206 27.6661 15.868V13.3351C27.6661 12.8825 27.3057 12.5156 26.861 12.5156H22.616Z" fill="#00548A"/>
<path d="M22.616 18.0781C22.1713 18.0781 21.8109 18.445 21.8109 18.8976V21.4305C21.8109 21.8831 22.1713 22.25 22.616 22.25H26.861C27.3057 22.25 27.6661 21.8831 27.6661 21.4305V18.8976C27.6661 18.445 27.3057 18.0781 26.861 18.0781H22.616Z" fill="#00548A"/>
<path d="M7.99609 26.4219C7.42008 26.4219 6.95312 26.8888 6.95312 27.4648C6.95312 28.0408 7.42008 28.5078 7.99609 28.5078H25.3789C25.9549 28.5078 26.4219 28.0408 26.4219 27.4648C26.4219 26.8888 25.9549 26.4219 25.3789 26.4219H7.99609Z" fill="#00548A"/>
</svg>
