<svg width="34" height="34" viewBox="0 0 34 34" fill="none" xmlns="http://www.w3.org/2000/svg">
<path d="M14.083 5.83643C13.0778 5.47119 11.9535 5.47119 10.9482 5.83643L2.60605 8.86753C1.87135 9.13448 1.39062 9.77405 1.39062 10.4846V20.1091C1.39062 20.8196 1.87135 21.4593 2.60605 21.7262L18.6522 29.2031C19.6574 29.5684 20.7817 29.5684 21.787 29.2031L30.1292 26.172C30.8639 25.9051 31.3446 25.2654 31.3446 24.5549V14.9304C31.3446 14.2199 30.8639 13.5803 30.1292 13.3133L14.083 5.83643ZM13.2109 15.3643C13.3744 14.9782 13.8562 14.7839 14.287 14.9304L19.8317 16.8158L25.3763 14.9304C25.8072 14.7839 26.289 14.9782 26.4524 15.3643C26.6159 15.7505 26.3991 16.1823 25.9683 16.3288L20.6661 18.1317V23.6062C20.6661 24.0193 20.2925 24.354 19.8317 24.354C19.3709 24.354 18.9974 24.0193 18.9974 23.6062V18.1317L13.6951 16.3288C13.2642 16.1823 13.0475 15.7505 13.2109 15.3643Z" fill="#407FA7"/>
</svg>
