<svg width="34" height="34" viewBox="0 0 34 34" fill="none" xmlns="http://www.w3.org/2000/svg">
<path d="M16.6769 3.12896C17.0837 3.12472 17.4559 3.35749 17.6302 3.72514L24.4434 18.1108C24.5542 18.245 24.6302 18.404 24.6634 18.5752L30.1458 30.147C30.3924 30.6675 30.1705 31.2896 29.6501 31.5363C29.1297 31.7828 28.5075 31.561 28.2609 31.0406L26.896 28.1602H7.09865L5.81939 31.0202C5.58401 31.5457 4.96663 31.7809 4.44098 31.5458C3.9155 31.3104 3.68027 30.693 3.91543 30.1674L12.1763 11.7009C12.1834 11.6398 12.1947 11.5779 12.213 11.5175C12.2573 11.3715 12.3339 11.2427 12.4303 11.1332L15.7357 3.74551L15.8077 3.61242C15.995 3.31766 16.3209 3.13283 16.6769 3.12896ZM11.371 26.0743H22.7378L17.0829 23.2183L11.371 26.0743ZM8.41323 25.2201L14.7607 22.0464L10.7409 20.0175L8.41323 25.2201ZM19.4079 22.0559L25.4497 25.106L23.1234 20.1967L19.4079 22.0559ZM17.087 20.8839L19.2232 19.8165H14.9725L17.087 20.8839ZM13.6851 17.7305H20.1955L16.8262 15.4843L13.6851 17.7305ZM12.5471 15.9787L14.9712 14.2472L13.7014 13.3998L12.5471 15.9787ZM18.6419 14.1874L21.0321 15.7817L19.8642 13.3156L18.6419 14.1874ZM16.7869 12.9503L16.9104 12.8633H16.6551L16.7869 12.9503ZM14.8747 10.7774H18.6623L16.7135 6.66528L14.8747 10.7774Z" fill="#00548A"/>
</svg>
