<svg width="15" height="20" viewBox="0 0 15 20" fill="none" xmlns="http://www.w3.org/2000/svg">
<path d="M10.788 16.998L10.4973 18.2565C10.2741 19.2198 9.4513 19.9174 8.4785 19.992L8.3054 19.9986H6.1937C5.20426 19.9986 4.3385 19.3537 4.04678 18.4222L4.00135 18.2549L3.711 16.998H10.788ZM7.25 0C11.2541 0 14.5 3.24593 14.5 7.25C14.5 9.38652 13.5644 11.3433 11.7346 13.0907C11.6993 13.1244 11.6747 13.1677 11.6637 13.2152L11.136 15.498H8V8.74932C8 8.33512 7.6642 7.99932 7.25 7.99932C6.8358 7.99932 6.5 8.33512 6.5 8.74932V15.498H3.364L2.83801 13.2154C2.82702 13.1678 2.80234 13.1245 2.76701 13.0907C0.93616 11.3433 0 9.38652 0 7.25C0 3.24593 3.24593 0 7.25 0ZM6.5 4.74975V6.24978C6.5 6.664 6.8358 6.99978 7.25 6.99978C7.6642 6.99978 8 6.664 8 6.24978V4.74975C8 4.33554 7.6642 3.99975 7.25 3.99975C6.8358 3.99975 6.5 4.33554 6.5 4.74975ZM11.5303 6.21509C11.2374 5.9222 10.7626 5.9222 10.4697 6.21509L9.409 7.27577C9.1161 7.56866 9.1161 8.04352 9.409 8.33642C9.7019 8.62932 10.1768 8.62932 10.4697 8.33642L11.5303 7.27575C11.8232 6.98286 11.8232 6.50798 11.5303 6.21509ZM4.03032 6.21509C3.73743 5.9222 3.26255 5.9222 2.96966 6.21509C2.67677 6.50798 2.67677 6.98286 2.96966 7.27575L4.03034 8.33642C4.32324 8.62932 4.79811 8.62932 5.091 8.33642C5.3839 8.04352 5.3839 7.56866 5.091 7.27577L4.03032 6.21509Z" fill="#407FA7"/>
</svg>
